<?xml version="1.0" encoding="utf-8"?>
<!-- Generator: Adobe Illustrator 24.2.3, SVG Export Plug-In . SVG Version: 6.00 Build 0)  -->
<svg version="1.1" id="Layer_1" xmlns="http://www.w3.org/2000/svg" xmlns:xlink="http://www.w3.org/1999/xlink" x="0px" y="0px"
	 viewBox="0 0 121 62" style="enable-background:new 0 0 121 62;" xml:space="preserve">
<style type="text/css">
	.st0{fill:#15467B;}
	.st1{fill:#595A5C;}
	.st2{fill:#FFFFFF;}
</style>
<g>
	<g>
		<path class="st0" d="M7.6,43.5v3.4c0,1-0.9,1.7-1.9,1.7H5.3c-1,0-1.9-0.7-1.9-1.7v-3.4h0.9v3.4c0,0.4,0.4,0.8,1,0.8h0.3
			c0.6,0,1-0.4,1-0.8v-3.4H7.6z"/>
		<path class="st0" d="M10.3,48.6c-0.6,0-1.2-0.2-1.8-0.4l0.4-0.8c0.4,0.2,1,0.3,1.4,0.3c0.6,0,1.1-0.2,1.1-0.6
			c0-0.5-0.9-0.6-1.2-0.6c-0.5-0.1-1.7-0.3-1.7-1.5c0-1.2,1.1-1.5,2-1.5c0.6,0,1.2,0.2,1.8,0.4l-0.3,0.8c-0.4-0.2-1-0.3-1.5-0.3
			c-0.6,0-1.1,0.2-1.1,0.6c0,0.4,0.5,0.5,0.9,0.6c0.1,0,0.2,0,0.4,0.1c0.5,0.1,1.7,0.3,1.6,1.5C12.2,48.3,11.2,48.6,10.3,48.6z"/>
		<path class="st0" d="M12.1,42.4V43H8.1v-0.6c0-0.2,0.2-0.3,0.6-0.3h2.8C11.9,42.1,12.1,42.2,12.1,42.4z"/>
		<path class="st0" d="M17.7,46.3h-0.2v0.6c0,1-0.9,1.7-2,1.7h-0.3c-1,0-2-0.7-2-1.7v-3.5h0.9v3.5c0,0.4,0.5,0.8,1.1,0.8h0.3
			c0.6,0,1.1-0.4,1.1-0.8v-0.6h-1.5v-0.6c0-0.2,0.2-0.3,0.5-0.3h0.9v-1.9h0.9v1.9h0.2V46.3z"/>
		<path class="st0" d="M17.9,42.1V43H15v-1.5h0.6c0.2,0,0.3,0.2,0.3,0.5v0.1L17.9,42.1z"/>
		<path class="st0" d="M18.5,48.5v-5h0.6c0.1,0,0.2,0.1,0.3,0.3c0.6-0.3,1.1-0.4,1.6-0.4c0.9,0,1.6,0.5,1.6,1.3v3.8h-0.9v-3.8
			c0-0.2-0.2-0.4-0.7-0.4c-0.4,0-0.9,0.1-1.5,0.5v3.7H18.5z"/>
		<path class="st0" d="M27,48.5v-5h0.6c0.1,0,0.2,0.1,0.3,0.3c0.6-0.3,1.1-0.4,1.6-0.4c0.9,0,1.6,0.5,1.6,1.3v3.8h-0.9v-3.8
			c0-0.2-0.2-0.4-0.7-0.4c-0.4,0-0.9,0.1-1.5,0.5v3.7H27z"/>
		<path class="st0" d="M31,41.8V43h-3.9v-0.6c0-0.2,0.2-0.3,0.5-0.3h2.5c0.1-0.2,0.1-0.3,0.3-0.3H31z"/>
		<path class="st0" d="M34,42H33c0.2,0.3,0.2,0.7,0.2,1v5.6h-0.9l0-5.6c0-0.4-0.2-0.7-0.7-1v-0.8H34V42z"/>
		<path class="st0" d="M38.2,45v2c0,0.9-0.9,1.6-1.9,1.6H36c-1,0-1.9-0.7-1.9-1.6v-1.2h0.9V47c0,0.4,0.4,0.7,1,0.7h0.3
			c0.6,0,1-0.3,1-0.7v-2c0-0.3-0.4-0.7-1.3-0.7c-0.4,0-1,0.1-1.7,0.4L34,43.9c0.8-0.3,1.5-0.5,2-0.5c0.6,0,1.1,0.2,1.5,0.4
			C37.9,44.1,38.2,44.5,38.2,45z"/>
		<path class="st0" d="M43.3,43.3c0,0.6-0.2,1-0.4,1.3c0.2,0.2,0.4,0.5,0.4,0.9l0,1.2c0,1-0.8,1.9-1.9,1.9h-0.3
			c-1,0-1.9-0.8-1.9-1.9v-0.6l0.5-1.4c-0.4-0.1-0.9-0.6-0.9-1.1h0.9c0,0.1,0.2,0.3,0.2,0.3c0,0,0.2-0.1,0.2-0.3h0.6l0.1,0.1
			c0,0,0.1,0.1,0.1,0.2c0,0.1,0,0.3-0.1,0.6l-0.6,1.8v0.6c0,0.5,0.5,1,1,1h0.3c0.6,0,1-0.4,1-1v-1.2c0-0.4-0.6-0.4-0.9-0.5v-0.9
			c0.3,0,0.9-0.1,0.9-1L43.3,43.3L43.3,43.3z"/>
		<path class="st0" d="M43.3,41.8V43h-3.9v-0.6c0-0.2,0.2-0.3,0.5-0.3h2.5c0.1-0.2,0.1-0.3,0.3-0.3H43.3z"/>
		<path class="st0" d="M47.8,43.5h0.9v5h-0.9V43.5z M49.3,43.5h0.9v5h-0.9V43.5z"/>
		<path class="st0" d="M52.1,47.2c0.6,0.3,1.2,0.5,1.6,0.5c0.5,0,0.7-0.2,0.7-0.4v-3.8h0.9v3.8c0,0.8-0.7,1.3-1.6,1.3
			c-0.5,0-1-0.1-1.6-0.4c-0.1,0.2-0.2,0.3-0.3,0.3h-0.6v-5.1h0.9V47.2z"/>
		<path class="st0" d="M60.4,43.5v5h-0.6c-0.1,0-0.2-0.1-0.3-0.3c-0.6,0.3-1.1,0.4-1.6,0.4c-0.9,0-1.6-0.5-1.6-1.3v-3.8h0.9v3.8
			c0,0.2,0.2,0.4,0.7,0.4c0.4,0,0.9-0.1,1.6-0.5v-3.7H60.4z"/>
		<path class="st0" d="M60.4,49v0.8c0,0.6-0.6,1-1.1,1c-0.4,0-1.1-0.3-1.1-0.8h-0.3V49H59v0.8c0,0.1,0.2,0.1,0.3,0.1
			c0.1,0,0.3-0.1,0.3-0.2V49H60.4z"/>
		<path class="st0" d="M61.5,43.5h0.9v5h-0.9V43.5z M63,43.5h0.9v5H63V43.5z"/>
		<path class="st0" d="M69.4,42.3v5.1c0,0.7-0.6,1.2-1.3,1.2h-0.2c-0.3,0-0.6-0.1-0.8-0.2c-0.2,0.2-0.5,0.2-0.8,0.2h-0.2
			c-0.7,0-1.2-0.5-1.2-1.2v-3.9h0.9v3.9c0,0.2,0.2,0.3,0.4,0.3h0.2c0.2,0,0.4-0.1,0.4-0.3v-1.8h0.9v1.8c0,0.1,0,0.1,0,0.2
			c0.1,0.1,0.2,0.1,0.3,0.1h0.2c0.2,0,0.4-0.2,0.4-0.3v-5.1H69.4z"/>
		<path class="st0" d="M74.8,45.3v3.2h-0.9v-3.2c0-0.5-0.5-1-1.1-1h-0.3c-0.6,0-1.1,0.5-1.1,1v0.5c0,0,0.1,0,0.1,0h1.1v0.6
			c0,0.2-0.2,0.3-0.5,0.3h-0.6c-0.1,0-0.1,0-0.1,0v1.8h-0.9v-3.2c0-1,0.9-1.9,2-1.9h0.3c0.5,0,1,0.2,1.4,0.5
			C74.5,44.4,74.8,44.8,74.8,45.3z"/>
		<path class="st0" d="M75.9,43.5h0.9v5h-0.9V43.5z"/>
		<path class="st0" d="M80.6,43.9c0.4,0.3,0.6,0.6,0.6,1.1v1.7c0,1.1-0.9,1.9-2,1.9h-0.5l-1.1-2.4h1l0.7,1.5c0.6,0,1-0.5,1-1V45
			c0-0.3-0.4-0.7-1.2-0.7c-0.4,0-0.9,0.1-1.6,0.4l-0.4-0.8c0.8-0.3,1.5-0.5,2-0.5C79.8,43.5,80.3,43.6,80.6,43.9L80.6,43.9z"/>
		<path class="st0" d="M86.3,45v2c0,0.9-0.9,1.6-1.9,1.6h-0.3c-1,0-1.9-0.7-1.9-1.6v-1.2h0.9V47c0,0.4,0.4,0.7,1,0.7h0.3
			c0.6,0,1-0.3,1-0.7v-2c0-0.3-0.4-0.7-1.3-0.7c-0.4,0-1,0.1-1.7,0.4l-0.3-0.8c0.8-0.3,1.5-0.5,2-0.5c0.6,0,1.1,0.2,1.5,0.4
			C86.1,44.1,86.3,44.5,86.3,45z"/>
		<path class="st0" d="M89,48.6c-0.6,0-1.2-0.2-1.8-0.4l0.4-0.8c0.4,0.2,1,0.3,1.4,0.3c0.6,0,1.1-0.2,1.1-0.6c0-0.5-0.9-0.6-1.2-0.6
			c-0.5-0.1-1.7-0.3-1.7-1.5c0-1.2,1.1-1.5,2-1.5c0.6,0,1.2,0.2,1.8,0.4l-0.3,0.8c-0.4-0.2-1-0.3-1.5-0.3c-0.6,0-1.1,0.2-1.1,0.6
			c0,0.4,0.5,0.5,0.9,0.6c0.1,0,0.2,0,0.4,0.1c0.5,0.1,1.7,0.3,1.6,1.5C90.9,48.3,89.9,48.6,89,48.6z"/>
		<path class="st0" d="M90.8,42.4V43h-3.9v-0.6c0-0.2,0.2-0.3,0.6-0.3h2.8C90.6,42.1,90.8,42.2,90.8,42.4z"/>
		<path class="st0" d="M90.8,41.4h-0.9v-1.8h0.9V41.4z"/>
		<path class="st0" d="M95,43.5v3.2c0,0.9-0.7,1.7-1.6,1.8l-0.4,0l-1.6-3.3h1l1.1,2.3c0.4-0.2,0.6-0.5,0.6-0.9v-3.2H95z"/>
		<path class="st0" d="M102.3,43.9c0.4,0.3,0.6,0.6,0.6,1.1v1.7c0,1.1-0.9,1.9-2,1.9h-0.5l-1.1-2.4h1l0.7,1.5c0.6,0,1-0.5,1-1V45
			c0-0.3-0.4-0.7-1.2-0.7c-0.4,0-0.9,0.1-1.6,0.4l-0.4-0.8c0.8-0.3,1.5-0.5,2-0.5C101.4,43.5,101.9,43.6,102.3,43.9L102.3,43.9z"/>
		<path class="st0" d="M103,42.4c0,0.5-0.3,0.8-0.8,0.8c-0.5,0-0.8-0.3-0.8-0.8c0-0.5,0.3-0.8,0.8-0.8C102.6,41.6,103,41.9,103,42.4
			z M102.3,42.4c0-0.1-0.1-0.2-0.2-0.2c-0.1,0-0.2,0.1-0.2,0.2c0,0.1,0.1,0.2,0.2,0.2C102.2,42.6,102.3,42.5,102.3,42.4z
			 M107.1,48.5h-0.9V45c0-0.4-0.3-0.7-1-0.7c-0.3,0-0.8,0.1-1.5,0.4l-0.4-0.8c0.7-0.3,1.4-0.5,1.8-0.5c1.1,0,1.9,0.7,1.9,1.6V48.5z"
			/>
		<path class="st0" d="M111.6,43.9c0.4,0.3,0.6,0.6,0.6,1.1v3.5h-0.9V45c0-0.3-0.4-0.7-1.2-0.7c-0.3,0-0.7,0-1,0.2v4h-0.9v-4.6
			c0.7-0.3,1.4-0.4,1.9-0.4C110.7,43.5,111.2,43.6,111.6,43.9L111.6,43.9z"/>
		<path class="st0" d="M112.8,42.1V43h-2.9v-1.5h0.6c0.2,0,0.3,0.2,0.3,0.5v0.1L112.8,42.1z"/>
		<path class="st0" d="M117,44c0.4,0.3,0.6,0.8,0.6,1.3v3.2h-0.9v-3.2c0-0.5-0.5-1-1.1-1h-0.3c-0.6,0-1.1,0.5-1.1,1v1.6
			c0,0.6,0.6,0.8,1.1,0.8v0.9c-0.7,0-2-0.3-2-1.7v-1.6c0-1.1,0.9-1.9,2-1.9h0.3C116.1,43.5,116.6,43.7,117,44L117,44z"/>
	</g>
	<g>
		<g>
			<path class="st1" d="M30.5,59.8h-0.7v-2.4l-0.6,2.4h-0.6L28,57.4l0,2.4h-0.7v-3.1h1.1l0.5,2.1l0.5-2.1h1.1V59.8z"/>
			<path class="st1" d="M34.3,59.8h-0.8l-0.2-0.6h-1l-0.2,0.6h-0.8l1.1-3.1h0.8L34.3,59.8z M33.1,58.6l-0.3-1.1l-0.3,1.1H33.1z"/>
			<path class="st1" d="M37.6,59.8h-0.8l-1-1.9l0,1.9H35v-3.1h0.8l1,1.9l0-1.9h0.7V59.8z"/>
			<path class="st1" d="M41.1,58.5c0,0.9-0.4,1.4-1.3,1.4c-0.9,0-1.3-0.5-1.3-1.4v-1.8h0.8v1.9c0,0.4,0.2,0.6,0.5,0.6
				c0.3,0,0.5-0.2,0.5-0.6v-1.9h0.8V58.5z"/>
			<path class="st1" d="M44.3,57.3h-1.4v0.6h1.2v0.6h-1.2v1.2h-0.8v-3.1h2.2V57.3z"/>
			<path class="st1" d="M47.9,59.8h-0.8l-0.2-0.6h-1l-0.2,0.6h-0.8l1.1-3.1h0.8L47.9,59.8z M46.7,58.6l-0.3-1.1L46,58.6H46.7z"/>
			<path class="st1" d="M51.4,58.6c0,0.4-0.1,0.7-0.4,0.9c-0.3,0.2-0.6,0.3-1,0.3c-0.5,0-0.8-0.2-1.1-0.5c-0.3-0.3-0.4-0.7-0.4-1.2
				c0-0.5,0.1-0.8,0.4-1.1c0.3-0.3,0.6-0.5,1.1-0.5c0.3,0,0.7,0.1,0.9,0.3c0.3,0.2,0.4,0.5,0.4,0.9h-0.8c0-0.3-0.2-0.5-0.6-0.5
				c-0.2,0-0.4,0.1-0.5,0.3c-0.1,0.2-0.2,0.4-0.2,0.6c0,0.3,0.1,0.5,0.2,0.6c0.1,0.2,0.3,0.3,0.5,0.3c0.4,0,0.6-0.2,0.6-0.6H51.4z"
				/>
			<path class="st1" d="M54.6,57.3h-0.9v2.4h-0.8v-2.4h-0.9v-0.7h2.5V57.3z"/>
			<path class="st1" d="M58,58.5c0,0.9-0.4,1.4-1.3,1.4c-0.9,0-1.3-0.5-1.3-1.4v-1.8h0.8v1.9c0,0.4,0.2,0.6,0.5,0.6
				c0.3,0,0.5-0.2,0.5-0.6v-1.9H58V58.5z"/>
			<path class="st1" d="M61.7,59.8h-0.8c0,0,0-0.1-0.1-0.2c0-0.1,0-0.2,0-0.3c0-0.4-0.1-0.6-0.4-0.6h-0.6v1.1H59v-3.1h1.5
				c0.3,0,0.5,0.1,0.7,0.2c0.2,0.2,0.3,0.4,0.3,0.7c0,0.4-0.2,0.6-0.5,0.8c0.1,0,0.2,0.1,0.3,0.3c0,0,0,0.1,0.1,0.2c0,0,0,0.1,0,0.2
				l0,0.4C61.6,59.6,61.6,59.7,61.7,59.8z M60.8,57.6c0-0.2-0.1-0.3-0.4-0.3h-0.6V58h0.6C60.7,58,60.8,57.9,60.8,57.6z"/>
			<path class="st1" d="M63.3,59.8h-0.8v-3.1h0.8V59.8z"/>
			<path class="st1" d="M66.9,59.8h-0.8l-1-1.9l0,1.9h-0.7v-3.1h0.8l1,1.9l0-1.9h0.7V59.8z"/>
			<path class="st1" d="M70.6,59.8h-0.5l0-0.3c-0.2,0.3-0.5,0.4-0.8,0.4c-0.5,0-0.8-0.2-1.1-0.5c-0.3-0.3-0.4-0.7-0.4-1.2
				c0-0.5,0.1-0.8,0.4-1.1c0.3-0.3,0.6-0.5,1.1-0.5c0.4,0,0.7,0.1,0.9,0.3c0.3,0.2,0.4,0.5,0.4,0.8h-0.8c0-0.1-0.1-0.2-0.2-0.3
				c-0.1-0.1-0.2-0.1-0.4-0.1c-0.2,0-0.4,0.1-0.5,0.3c-0.1,0.2-0.2,0.4-0.2,0.6c0,0.3,0.1,0.5,0.2,0.6c0.1,0.2,0.3,0.3,0.5,0.3
				c0.2,0,0.3,0,0.5-0.1c0.1-0.1,0.2-0.2,0.2-0.3h-0.5v-0.6h1.2V59.8z"/>
			<path class="st1" d="M76.7,58.6c0,0.4-0.1,0.7-0.4,0.9c-0.3,0.2-0.6,0.3-1,0.3c-0.5,0-0.8-0.2-1.1-0.5c-0.3-0.3-0.4-0.7-0.4-1.2
				c0-0.5,0.1-0.8,0.4-1.1c0.3-0.3,0.6-0.5,1.1-0.5c0.3,0,0.7,0.1,0.9,0.3c0.3,0.2,0.4,0.5,0.4,0.9h-0.8c0-0.3-0.2-0.5-0.6-0.5
				c-0.2,0-0.4,0.1-0.5,0.3c-0.1,0.2-0.2,0.4-0.2,0.6c0,0.3,0.1,0.5,0.2,0.6c0.1,0.2,0.3,0.3,0.5,0.3c0.4,0,0.6-0.2,0.6-0.6H76.7z"
				/>
			<path class="st1" d="M80.4,58.2c0,0.5-0.1,0.9-0.4,1.2c-0.3,0.3-0.6,0.5-1.1,0.5c-0.5,0-0.8-0.2-1.1-0.5
				c-0.3-0.3-0.4-0.7-0.4-1.2c0-0.5,0.1-0.9,0.4-1.2c0.3-0.3,0.6-0.5,1.1-0.5c0.5,0,0.8,0.2,1.1,0.5C80.3,57.3,80.4,57.7,80.4,58.2z
				 M79.6,58.2c0-0.3-0.1-0.5-0.2-0.6c-0.1-0.2-0.3-0.3-0.5-0.3c-0.2,0-0.4,0.1-0.5,0.3c-0.1,0.2-0.2,0.4-0.2,0.6
				c0,0.3,0.1,0.5,0.2,0.6c0.1,0.2,0.3,0.3,0.5,0.3c0.2,0,0.4-0.1,0.5-0.3C79.6,58.7,79.6,58.5,79.6,58.2z"/>
			<path class="st1" d="M81.9,59.8h-0.7v-0.7h0.7V59.8z"/>
			<path class="st1" d="M83.5,59.7c0,0.3-0.1,0.5-0.2,0.6c-0.1,0.1-0.3,0.2-0.5,0.2v-0.3c0.2,0,0.3-0.2,0.3-0.4h-0.3v-0.7h0.7V59.7z
				"/>
			<path class="st1" d="M86.6,59.8h-2.2v-3.1h0.8v2.4h1.4V59.8z"/>
			<path class="st1" d="M89.9,57.3H89v2.4h-0.8v-2.4h-0.9v-0.7h2.5V57.3z"/>
			<path class="st1" d="M93.4,58.2c0,0.5-0.1,0.9-0.4,1.2c-0.3,0.3-0.6,0.4-1.1,0.4h-1.3v-3.1H92c0.5,0,0.8,0.1,1.1,0.4
				C93.3,57.3,93.4,57.7,93.4,58.2z M92.6,58.2c0-0.6-0.3-0.8-0.8-0.8h-0.4v1.7h0.4c0.3,0,0.5-0.1,0.6-0.2
				C92.6,58.7,92.6,58.5,92.6,58.2z"/>
		</g>
	</g>
	<path class="st0" d="M33.5,32.3h-6.7V10.1h-7.5V3.9H41v6.2h-7.5V32.3z"/>
	<path class="st0" d="M90.1,32.3c-4,0-7.4-1.4-10.1-4.1c-2.7-2.7-4.1-6.1-4.1-10.1c0-4,1.4-7.4,4.1-10.1c2.7-2.7,6.1-4.1,10.1-4.1
		h11.7v6.3H90.1c-5.2,0.4-7.8,3.1-7.8,8c0.6,5.3,3.2,8,7.8,8h11.7v6.2H90.1z"/>
	<path class="st0" d="M68.5,6.9c-3-2.8-6.5-4.3-10.7-4.3C53.6,2.7,50,4.1,47,6.9c-3,2.8-4.4,6.3-4.4,10.5c0,4.2,1.5,7.7,4.4,10.5
		c3,2.8,6.5,4.3,10.7,4.3c4.2,0,7.8-1.4,10.7-4.3c3-2.8,4.4-6.3,4.4-10.5C72.9,13.3,71.5,9.8,68.5,6.9z"/>
	<g>
		<circle class="st2" cx="57.8" cy="17.4" r="6.7"/>
		<g>
			<path class="st2" d="M57.8,30.4c-7.2,0-13-5.8-13-13c0-7.2,5.8-13,13-13c7.2,0,13,5.8,13,13C70.8,24.6,64.9,30.4,57.8,30.4z
				 M57.8,5.6c-6.5,0-11.8,5.3-11.8,11.8c0,6.5,5.3,11.8,11.8,11.8c6.5,0,11.8-5.3,11.8-11.8C69.6,10.9,64.3,5.6,57.8,5.6z"/>
		</g>
		<g>
			<path class="st2" d="M57.8,27.7c-5.7,0-10.2-4.6-10.2-10.2c0-5.7,4.6-10.2,10.2-10.2c5.7,0,10.2,4.6,10.2,10.2
				C68,23.1,63.4,27.7,57.8,27.7z M57.8,8.1c-5.2,0-9.4,4.2-9.4,9.4c0,5.2,4.2,9.4,9.4,9.4c5.2,0,9.4-4.2,9.4-9.4
				C67.1,12.3,62.9,8.1,57.8,8.1z"/>
		</g>
	</g>
</g>
</svg>
